<svg width="568" height="166" viewBox="0 0 568 166" fill="none" xmlns="http://www.w3.org/2000/svg">
<g clip-path="url(#clip0_17_674)">
<path d="M397.959 113.769H383.595L359.571 77.3972V113.769H345.207V54.8012H359.571L383.595 91.3412V54.8012H397.959V113.769Z" fill="#7C3AED"/>
<path d="M422.911 113.385C418.428 113.385 414.383 112.428 410.775 110.515C407.221 108.601 404.406 105.868 402.329 102.315C400.306 98.7614 399.295 94.6068 399.295 89.8508C399.295 85.1494 400.333 81.0221 402.411 77.4688C404.488 73.8608 407.331 71.1001 410.939 69.1868C414.547 67.2734 418.592 66.3168 423.075 66.3168C427.557 66.3168 431.603 67.2734 435.211 69.1868C438.819 71.1001 441.661 73.8608 443.739 77.4688C445.816 81.0221 446.855 85.1494 446.855 89.8508C446.855 94.5521 445.789 98.7068 443.657 102.315C441.579 105.868 438.709 108.601 435.047 110.515C431.439 112.428 427.393 113.385 422.911 113.385ZM422.911 101.249C425.589 101.249 427.858 100.265 429.717 98.2968C431.63 96.3288 432.587 93.5134 432.587 89.8508C432.587 86.1881 431.657 83.3728 429.799 81.4048C427.995 79.4368 425.753 78.4528 423.075 78.4528C420.341 78.4528 418.073 79.4368 416.269 81.4048C414.465 83.3181 413.563 86.1334 413.563 89.8508C413.563 93.5134 414.437 96.3288 416.187 98.2968C417.991 100.265 420.232 101.249 422.911 101.249Z" fill="#7C3AED"/>
<path d="M520.569 66.7268L508.843 112.729H490.803L484.407 84.8488L477.765 112.729H459.807L448.163 66.7268H464.153L469.319 97.2308L476.125 66.7268H493.345L500.397 97.3128L505.481 66.7268H520.569Z" fill="#FBBF24"/>
<path opacity="0.1" d="M518.572 37.5212C529.153 40.4144 538.501 40.2413 539.452 37.1346C540.403 34.0279 532.597 29.164 522.016 26.2708C511.436 23.3777 502.087 23.5508 501.136 26.6575C500.186 29.7642 507.992 34.6281 518.572 37.5212Z" fill="black"/>
<path d="M490.739 19.2069L523.904 18.5743L551.59 35.8459L518.424 36.4786L490.739 19.2069Z" fill="url(#paint0_linear_17_674)"/>
<path opacity="0.5" d="M497.669 20.7413L523.097 22.6183L545.651 33.954L522.522 24.51L497.669 20.7413Z" fill="#F59E0B"/>
<path d="M519.406 34.756C529.987 37.6492 539.335 37.4761 540.286 34.3693C541.237 31.2626 533.43 26.3988 522.85 23.5056C512.269 20.6124 502.921 20.7855 501.97 23.8922C501.019 26.9989 508.826 31.8628 519.406 34.756Z" fill="#F59E0B"/>
<path d="M519.156 36.3391C529.737 39.2323 539.085 39.0592 540.036 35.9525C540.987 32.8458 533.181 27.9819 522.6 25.0887C512.02 22.1955 502.671 22.3686 501.721 25.4754C500.77 28.5821 508.576 33.4459 519.156 36.3391Z" fill="#FBBF24"/>
<path d="M519.156 37.2986C529.737 40.1918 539.085 40.0187 540.036 36.912C540.987 33.8053 533.181 28.9414 522.6 26.0483C512.02 23.1551 502.671 23.3282 501.721 26.4349C500.77 29.5416 508.576 34.4055 519.156 37.2986Z" fill="#FBBF24"/>
<path d="M518.407 40.2475C529.126 43.1787 538.586 43.0362 539.537 39.9292C540.488 36.8221 532.57 31.9271 521.851 28.9958C511.132 26.0645 501.672 26.2071 500.721 29.3141C499.77 32.4212 507.688 37.3162 518.407 40.2475Z" fill="#FBBF24"/>
<path d="M518.87 38.1796C529.609 41.1162 539.085 40.9779 540.036 37.8708C540.987 34.7637 533.053 29.8643 522.314 26.9277C511.576 23.9911 502.1 24.1293 501.149 27.2365C500.198 30.3436 508.132 35.243 518.87 38.1796Z" fill="#FBBF24"/>
<path d="M518.156 42.0963C528.737 44.9895 538.085 44.8164 539.036 41.7097C539.987 38.603 532.181 33.7391 521.6 30.8459C511.02 27.9527 501.671 28.1258 500.721 31.2326C499.77 34.3393 507.576 39.2031 518.156 42.0963Z" fill="#CE9A17"/>
<path d="M539.936 34.2432L539.094 47.0258" stroke="#FBBF24" stroke-width="2" stroke-linecap="round"/>
<path d="M538.334 53.1682C540.176 53.6698 542.117 52.6209 542.669 50.8253C543.221 49.0298 542.175 47.1676 540.333 46.6659C538.491 46.1643 536.55 47.2132 535.998 49.0087C535.446 50.8043 536.492 52.6665 538.334 53.1682Z" fill="#FBBF24"/>
<path opacity="0.8" d="M538.309 52.0438L535.499 59.6754" stroke="#F59E0B" stroke-width="0.8"/>
<path opacity="0.8" d="M537.319 52.0438L534.508 59.6754" stroke="#F59E0B" stroke-width="0.8"/>
<path opacity="0.8" d="M539.319 52.0438L536.508 59.6754" stroke="#F59E0B" stroke-width="0.8"/>
<path opacity="0.8" d="M537.319 52.0438L534.508 59.6754" stroke="#F59E0B" stroke-width="0.8"/>
<path opacity="0.8" d="M537.089 51.7813L532.065 57.6531M539.023 52.4257L537.959 59.7185M539.519 51.9196L541.436 59.6873M540.483 51.6675L543.472 59.4929" stroke="#F59E0B" stroke-width="0.8"/>
<path opacity="0.8" d="M536.099 51.7813L531.074 57.6531M538.032 52.4257L536.968 59.7185M538.528 51.9196L540.446 59.6873M539.492 51.6675L542.482 59.4929" stroke="#F59E0B" stroke-width="0.8"/>
<path opacity="0.8" d="M538.099 51.7813L533.074 57.6531M540.032 52.4257L538.968 59.7185M540.528 51.9196L542.446 59.6873M541.492 51.6675L544.482 59.4929" stroke="#F59E0B" stroke-width="0.8"/>
<path opacity="0.8" d="M536.099 51.7813L531.074 57.6531M538.032 52.4257L536.968 59.7185M538.528 51.9196L540.446 59.6873M539.492 51.6675L542.482 59.4929" stroke="#F59E0B" stroke-width="0.8"/>
<path opacity="0.8" d="M541.033 51.5149L545.997 57.0207" stroke="#F59E0B" stroke-width="0.8"/>
<path opacity="0.8" d="M540.042 51.5149L545.007 57.0207" stroke="#F59E0B" stroke-width="0.8"/>
<path opacity="0.8" d="M542.042 51.5149L547.007 57.0207" stroke="#F59E0B" stroke-width="0.8"/>
<path opacity="0.8" d="M540.042 51.5149L545.007 57.0207" stroke="#F59E0B" stroke-width="0.8"/>
<path d="M141.467 65.5212C147.152 65.5212 151.662 67.2432 154.997 70.6872C158.386 74.1312 160.081 78.9146 160.081 85.0372V111.769H146.141V86.9232C146.141 83.9712 145.348 81.7026 143.763 80.1172C142.232 78.4772 140.1 77.6572 137.367 77.6572C134.633 77.6572 132.474 78.4772 130.889 80.1172C129.358 81.7026 128.593 83.9712 128.593 86.9232V111.769H114.653V86.9232C114.653 83.9712 113.86 81.7026 112.275 80.1172C110.744 78.4772 108.612 77.6572 105.879 77.6572C103.145 77.6572 100.986 78.4772 99.4007 80.1172C97.87 81.7026 97.1047 83.9712 97.1047 86.9232V111.769H83.0827V66.0132H97.1047V71.7532C98.526 69.8399 100.385 68.3366 102.681 67.2432C104.977 66.0952 107.573 65.5212 110.471 65.5212C113.915 65.5212 116.976 66.2592 119.655 67.7352C122.388 69.2112 124.52 71.3159 126.051 74.0492C127.636 71.5346 129.795 69.4846 132.529 67.8992C135.262 66.3139 138.241 65.5212 141.467 65.5212ZM167.099 88.8092C167.099 84.1079 167.974 79.9806 169.723 76.4272C171.527 72.8739 173.96 70.1406 177.021 68.2272C180.083 66.3139 183.499 65.3572 187.271 65.3572C190.497 65.3572 193.312 66.0132 195.717 67.3252C198.177 68.6372 200.063 70.3592 201.375 72.4912V66.0132H215.397V111.769H201.375V105.291C200.009 107.423 198.095 109.145 195.635 110.457C193.23 111.769 190.415 112.425 187.189 112.425C183.472 112.425 180.083 111.469 177.021 109.555C173.96 107.587 171.527 104.827 169.723 101.273C167.974 97.6652 167.099 93.5106 167.099 88.8092ZM201.375 88.8912C201.375 85.3926 200.391 82.6319 198.423 80.6092C196.51 78.5866 194.159 77.5752 191.371 77.5752C188.583 77.5752 186.205 78.5866 184.237 80.6092C182.324 82.5772 181.367 85.3106 181.367 88.8092C181.367 92.3079 182.324 95.0959 184.237 97.1732C186.205 99.1959 188.583 100.207 191.371 100.207C194.159 100.207 196.51 99.1959 198.423 97.1732C200.391 95.1506 201.375 92.3899 201.375 88.8912ZM251.044 99.8792V111.769H243.91C238.826 111.769 234.862 110.539 232.02 108.079C229.177 105.565 227.756 101.492 227.756 95.8612V77.6572H222.18V66.0132H227.756V54.8612H241.778V66.0132H250.962V77.6572H241.778V96.0252C241.778 97.3919 242.106 98.3759 242.762 98.9772C243.418 99.5786 244.511 99.8792 246.042 99.8792H251.044ZM301.986 88.1532C301.986 89.4652 301.904 90.8319 301.74 92.2532H270.006C270.225 95.0959 271.127 97.2826 272.712 98.8132C274.352 100.289 276.347 101.027 278.698 101.027C282.197 101.027 284.629 99.5512 285.996 96.5992H300.92C300.155 99.6059 298.761 102.312 296.738 104.717C294.77 107.123 292.283 109.009 289.276 110.375C286.269 111.742 282.907 112.425 279.19 112.425C274.707 112.425 270.717 111.469 267.218 109.555C263.719 107.642 260.986 104.909 259.018 101.355C257.05 97.8019 256.066 93.6472 256.066 88.8912C256.066 84.1352 257.023 79.9806 258.936 76.4272C260.904 72.8739 263.637 70.1406 267.136 68.2272C270.635 66.3139 274.653 65.3572 279.19 65.3572C283.618 65.3572 287.554 66.2866 290.998 68.1452C294.442 70.0039 297.121 72.6552 299.034 76.0992C301.002 79.5432 301.986 83.5612 301.986 88.1532ZM287.636 84.4632C287.636 82.0579 286.816 80.1446 285.176 78.7232C283.536 77.3019 281.486 76.5912 279.026 76.5912C276.675 76.5912 274.68 77.2746 273.04 78.6412C271.455 80.0079 270.471 81.9486 270.088 84.4632H287.636ZM323.405 73.6392C325.045 71.1246 327.095 69.1566 329.555 67.7352C332.015 66.2592 334.749 65.5212 337.755 65.5212V80.3632H333.901C330.403 80.3632 327.779 81.1286 326.029 82.6592C324.28 84.1352 323.405 86.7592 323.405 90.5312V111.769H309.383V66.0132H323.405V73.6392Z" fill="white"/>
<rect width="18.3974" height="64.9692" transform="matrix(0.969562 0.244845 -0.264509 0.964383 509.184 38.7739)" fill="#FBBF24"/>
<path fill-rule="evenodd" clip-rule="evenodd" d="M123.236 15.9669C120.338 30.001 115.625 36.2973 109.712 38.5606C103.8 40.8285 96.973 39.0526 90.1461 37.2722C85.4336 36.017 80.6249 34.7365 76.2407 34.6113C71.6657 34.4782 67.4235 35.5992 63.8465 39.207C63.0223 40.0721 62.3126 41.4567 61.9056 43.2864C61.2377 45.7724 60.8887 49.1389 60.8468 53.078C60.4587 68.0276 63.2462 91.4559 61.5032 105.827C61.1518 109.129 60.4967 111.94 59.528 114.023C58.6443 115.836 57.5488 117.077 56.0388 117.429C54.8119 117.716 53.372 117.408 51.5292 116.51C48.4246 114.975 44.6859 111.767 39.9183 106.525C35.7465 101.936 32.2172 96.7312 28.1364 92.0311C21.7655 84.6725 15.106 77.221 7.74525 71.3843C7.25533 71.016 2.37514 69.2127 2.01091 69.6529C1.55163 70.097 5.88752 72.6147 6.37744 72.983C13.6398 78.7368 20.3866 86.7464 26.6583 94.0017C29.3645 99.426 34.1293 103.546 37.2305 108.317C41.238 114.482 47.0051 117.21 50.3031 118.825C52.6335 120.028 54.6295 120.653 56.3286 120.266C58.0723 120.605 60.2629 118.692 61.3393 116.941C63.8333 115.313 64.3233 110.757 64.8278 106.465C67.4238 92.0934 65.2451 70.2542 64.7077 55.0059C64.7563 51.2474 64.1062 46.8937 64.6832 44.5235C65.0111 43.1186 65.4445 41.8581 66.181 41.1911C69.2053 38.0755 71.7054 37.7617 75.7083 37.8746C79.9021 37.9965 84.6484 39.0776 89.2639 40.2837C96.4765 42.1949 104.259 42.9226 110.547 40.4944C116.834 38.0628 126.078 31.9351 126.847 16.5342C127.016 15.9677 125.114 15.2601 124.538 15.1474C123.963 15.0348 123.31 15.4033 123.236 15.9669Z" fill="#FBBF24"/>
<path fill-rule="evenodd" clip-rule="evenodd" d="M125.575 15.9042C125.679 16.0453 125.892 16.4314 126.002 16.7523C126.653 18.3093 127.336 20.7352 127.56 21.4463C129.967 27.7238 132.008 34.7703 132.265 41.5638C132.286 42.1334 132.797 42.5799 133.388 42.5611C134.078 42.5393 134.553 42.0622 134.531 41.4926C137.226 34.4549 133.75 26.8049 131.434 20.3402C131.111 19.622 130.155 16.9136 129.503 15.332C129.284 14.7628 129.23 15.0697 129.022 14.7763C129.579 14.048 127.3 13.6078 127.099 13.5076C126.695 13.2447 125.572 13.468 124.982 13.5035C124.293 13.5443 123.076 13.579 122.301 13.9533C120.651 14.6892 118.087 16.088 116.548 17.1269C115.683 17.723 114.21 18.4873 113.191 18.4853C109.352 18.4779 108.391 18.0211 103.238 14.7267C102.826 14.2806 102.132 14.2019 101.652 14.5539C101.172 14.906 101.098 15.5555 101.411 16.0057C105.946 21.164 111.52 22.4697 116.586 20.7864C117.853 20.3795 120.535 18.2621 122.949 16.8884C123.723 16.4929 124.402 16.1663 124.987 15.9989C125.183 15.9495 125.28 15.9164 125.477 15.906C125.477 15.9038 125.575 15.8975 125.575 15.9042Z" fill="#FBBF24"/>
<path d="M334.031 120.781C334.448 120.865 335.021 121.115 335.75 121.531C336.479 121.927 337.208 122.385 337.938 122.906C338.688 123.406 339.344 123.906 339.906 124.406C340.469 124.885 340.802 125.229 340.906 125.438C340.99 125.646 341.021 126.031 341 126.594C340.979 127.156 340.917 127.844 340.812 128.656C340.708 129.448 340.573 130.323 340.406 131.281C340.24 132.24 340.052 133.208 339.844 134.188C339.635 135.146 339.406 136.083 339.156 137C338.927 137.896 338.688 138.688 338.438 139.375C338.333 139.708 338.104 140.073 337.75 140.469C337.396 140.865 336.979 141.26 336.5 141.656C336.021 142.031 335.51 142.385 334.969 142.719C334.448 143.052 333.948 143.333 333.469 143.562C333.01 143.792 332.594 143.948 332.219 144.031C331.865 144.115 331.625 144.094 331.5 143.969C331.375 143.844 331.24 143.448 331.094 142.781C330.969 142.094 330.844 141.24 330.719 140.219C330.594 139.177 330.479 138.021 330.375 136.75C330.271 135.458 330.177 134.146 330.094 132.812C330.01 131.479 329.938 130.177 329.875 128.906C329.833 127.615 329.802 126.458 329.781 125.438C329.781 124.396 329.802 123.531 329.844 122.844C329.885 122.135 329.958 121.708 330.062 121.562C330.146 121.458 330.354 121.354 330.688 121.25C331.042 121.146 331.427 121.052 331.844 120.969C332.281 120.885 332.708 120.823 333.125 120.781C333.542 120.74 333.844 120.74 334.031 120.781ZM333.844 124.75C333.698 124.854 333.594 125.177 333.531 125.719C333.469 126.24 333.417 126.875 333.375 127.625C333.354 128.354 333.344 129.135 333.344 129.969C333.344 130.802 333.333 131.562 333.312 132.25C333.271 134.042 333.25 135.458 333.25 136.5C333.271 137.521 333.292 138.292 333.312 138.812C333.354 139.312 333.406 139.635 333.469 139.781C333.531 139.906 333.615 139.969 333.719 139.969C333.802 139.969 333.938 139.906 334.125 139.781C334.333 139.656 334.552 139.5 334.781 139.312C335.01 139.125 335.229 138.927 335.438 138.719C335.646 138.49 335.792 138.292 335.875 138.125C335.958 137.958 336.062 137.635 336.188 137.156C336.312 136.656 336.438 136.083 336.562 135.438C336.688 134.771 336.812 134.073 336.938 133.344C337.062 132.594 337.167 131.885 337.25 131.219C337.354 130.531 337.427 129.927 337.469 129.406C337.531 128.865 337.562 128.479 337.562 128.25C337.542 127.812 337.365 127.365 337.031 126.906C336.698 126.448 336.312 126.042 335.875 125.688C335.458 125.333 335.042 125.062 334.625 124.875C334.229 124.688 333.969 124.646 333.844 124.75ZM344.719 134.969C345.052 134.844 345.427 134.708 345.844 134.562C346.281 134.396 346.698 134.25 347.094 134.125C347.49 133.979 347.844 133.854 348.156 133.75C348.469 133.646 348.698 133.562 348.844 133.5C348.823 133.271 348.792 133.01 348.75 132.719C348.729 132.406 348.698 132.115 348.656 131.844C348.615 131.552 348.562 131.302 348.5 131.094C348.438 130.885 348.375 130.76 348.312 130.719C348.146 130.656 347.865 130.604 347.469 130.562C347.094 130.5 346.698 130.51 346.281 130.594C345.885 130.677 345.521 130.833 345.188 131.062C344.854 131.292 344.667 131.656 344.625 132.156C344.583 132.49 344.573 132.906 344.594 133.406C344.615 133.906 344.656 134.427 344.719 134.969ZM351.5 135.469C351.479 135.51 351.229 135.594 350.75 135.719C350.271 135.844 349.698 135.979 349.031 136.125C348.365 136.25 347.656 136.385 346.906 136.531C346.156 136.656 345.51 136.76 344.969 136.844C345.073 137.677 345.198 138.427 345.344 139.094C345.49 139.74 345.615 140.146 345.719 140.312C345.823 140.458 345.958 140.594 346.125 140.719C346.271 140.823 346.448 140.927 346.656 141.031C346.885 141.115 347.156 141.177 347.469 141.219C347.698 141.281 347.917 141.198 348.125 140.969C348.292 140.76 348.438 140.396 348.562 139.875C348.708 139.354 348.781 138.531 348.781 137.406C349.427 137.302 349.927 137.24 350.281 137.219C350.656 137.198 350.927 137.198 351.094 137.219C351.302 137.24 351.427 137.271 351.469 137.312C351.49 137.375 351.49 137.531 351.469 137.781C351.448 138.031 351.396 138.344 351.312 138.719C351.25 139.073 351.167 139.469 351.062 139.906C350.979 140.323 350.875 140.729 350.75 141.125C350.625 141.5 350.49 141.844 350.344 142.156C350.198 142.448 350.042 142.656 349.875 142.781C349.375 143.156 348.75 143.344 348 143.344C347.25 143.323 346.51 143.219 345.781 143.031C345.052 142.823 344.396 142.583 343.812 142.312C343.229 142.021 342.865 141.781 342.719 141.594C342.615 141.469 342.521 141.156 342.438 140.656C342.354 140.135 342.281 139.51 342.219 138.781C342.177 138.052 342.146 137.25 342.125 136.375C342.104 135.5 342.115 134.646 342.156 133.812C342.219 132.979 342.302 132.208 342.406 131.5C342.531 130.792 342.698 130.219 342.906 129.781C343.219 129.156 343.729 128.646 344.438 128.25C345.146 127.854 345.896 127.583 346.688 127.438C347.479 127.292 348.229 127.271 348.938 127.375C349.667 127.479 350.208 127.708 350.562 128.062C350.771 128.271 350.958 128.688 351.125 129.312C351.292 129.917 351.396 130.656 351.438 131.531C351.438 131.615 351.448 131.854 351.469 132.25C351.49 132.646 351.5 133.073 351.5 133.531C351.521 133.969 351.531 134.385 351.531 134.781C351.531 135.177 351.521 135.406 351.5 135.469ZM361.062 127.469C361.271 127.594 361.479 127.823 361.688 128.156C361.917 128.469 362.115 128.844 362.281 129.281C362.469 129.719 362.615 130.188 362.719 130.688C362.823 131.167 362.875 131.625 362.875 132.062C362.875 132.375 362.833 132.812 362.75 133.375C362.688 133.917 362.594 134.521 362.469 135.188C362.344 135.833 362.208 136.51 362.062 137.219C361.917 137.906 361.771 138.542 361.625 139.125C361.5 139.708 361.385 140.208 361.281 140.625C361.177 141.021 361.104 141.26 361.062 141.344C360.958 141.594 360.865 141.812 360.781 142C360.719 142.167 360.635 142.292 360.531 142.375C360.302 142.542 360.01 142.667 359.656 142.75C359.302 142.812 358.938 142.854 358.562 142.875C358.188 142.896 357.823 142.896 357.469 142.875C357.135 142.833 356.875 142.781 356.688 142.719C356.604 142.698 356.51 142.677 356.406 142.656C356.323 142.615 356.229 142.573 356.125 142.531C355.917 142.885 355.677 143.208 355.406 143.5C355.135 143.771 354.885 143.885 354.656 143.844C354.573 143.823 354.479 143.479 354.375 142.812C354.292 142.146 354.198 141.271 354.094 140.188C353.99 139.083 353.885 137.833 353.781 136.438C353.677 135.042 353.583 133.615 353.5 132.156C353.417 130.677 353.344 129.229 353.281 127.812C353.219 126.396 353.167 125.135 353.125 124.031C353.104 122.906 353.104 121.99 353.125 121.281C353.146 120.552 353.198 120.156 353.281 120.094C353.365 120.031 353.552 120.083 353.844 120.25C354.156 120.396 354.49 120.625 354.844 120.938C355.198 121.229 355.521 121.583 355.812 122C356.125 122.417 356.333 122.844 356.438 123.281C356.5 123.615 356.542 124.188 356.562 125C356.604 125.812 356.625 126.771 356.625 127.875C357.542 127.521 358.385 127.292 359.156 127.188C359.948 127.083 360.583 127.177 361.062 127.469ZM359.719 132.062C359.719 131.729 359.667 131.406 359.562 131.094C359.458 130.76 359.333 130.479 359.188 130.25C359.042 130 358.885 129.812 358.719 129.688C358.552 129.562 358.406 129.521 358.281 129.562C358.052 129.604 357.833 129.667 357.625 129.75C357.417 129.812 357.24 129.875 357.094 129.938C356.906 130.021 356.75 130.094 356.625 130.156C356.604 131.385 356.573 132.635 356.531 133.906C356.51 135.177 356.5 136.365 356.5 137.469C356.5 138.01 356.51 138.49 356.531 138.906C356.552 139.302 356.562 139.552 356.562 139.656C356.625 140.156 356.76 140.51 356.969 140.719C357.031 140.76 357.125 140.823 357.25 140.906C357.396 140.969 357.542 141.031 357.688 141.094C357.854 141.135 358.01 141.167 358.156 141.188C358.302 141.188 358.427 141.146 358.531 141.062C358.552 141.042 358.594 140.812 358.656 140.375C358.74 139.917 358.823 139.365 358.906 138.719C358.99 138.073 359.073 137.375 359.156 136.625C359.26 135.854 359.354 135.146 359.438 134.5C359.521 133.833 359.583 133.271 359.625 132.812C359.688 132.354 359.719 132.104 359.719 132.062ZM371.344 127.281C371.385 127.344 371.448 127.635 371.531 128.156C371.615 128.677 371.698 129.323 371.781 130.094C371.885 130.865 371.979 131.698 372.062 132.594C372.167 133.49 372.26 134.344 372.344 135.156C372.448 135.969 372.531 136.698 372.594 137.344C372.656 137.99 372.708 138.427 372.75 138.656C372.812 139.031 372.885 139.448 372.969 139.906C373.052 140.344 373.125 140.771 373.188 141.188C373.25 141.583 373.292 141.927 373.312 142.219C373.354 142.51 373.344 142.688 373.281 142.75C373.24 142.812 373.073 142.833 372.781 142.812C372.49 142.771 372.167 142.708 371.812 142.625C371.479 142.521 371.156 142.406 370.844 142.281C370.552 142.135 370.365 142 370.281 141.875C370.198 141.771 370.115 141.615 370.031 141.406C369.969 141.198 369.885 140.833 369.781 140.312C369.552 140.625 369.302 140.958 369.031 141.312C368.781 141.646 368.531 141.958 368.281 142.25C368.031 142.521 367.802 142.74 367.594 142.906C367.385 143.073 367.229 143.156 367.125 143.156C366.958 143.156 366.708 142.99 366.375 142.656C366.042 142.302 365.708 141.906 365.375 141.469C365.042 141.031 364.74 140.615 364.469 140.219C364.198 139.823 364.052 139.562 364.031 139.438C363.99 139.312 363.969 138.969 363.969 138.406C363.99 137.844 364.01 137.219 364.031 136.531C364.073 135.823 364.115 135.125 364.156 134.438C364.198 133.729 364.24 133.167 364.281 132.75C364.323 132.333 364.365 131.875 364.406 131.375C364.469 130.854 364.531 130.375 364.594 129.938C364.656 129.479 364.708 129.083 364.75 128.75C364.812 128.417 364.865 128.219 364.906 128.156C364.948 128.094 365.062 128.062 365.25 128.062C365.458 128.042 365.667 128.052 365.875 128.094C366.104 128.115 366.312 128.167 366.5 128.25C366.688 128.312 366.812 128.396 366.875 128.5C366.917 128.583 366.938 128.854 366.938 129.312C366.958 129.75 366.969 130.292 366.969 130.938C366.969 131.562 366.969 132.25 366.969 133C366.969 133.729 366.958 134.417 366.938 135.062C366.938 135.688 366.927 136.229 366.906 136.688C366.906 137.125 366.906 137.385 366.906 137.469C366.906 137.635 367 137.958 367.188 138.438C367.396 138.917 367.604 139.375 367.812 139.812L369.438 137.875C369.417 137.5 369.396 137.021 369.375 136.438C369.375 135.854 369.365 135.24 369.344 134.594C369.323 133.948 369.302 133.292 369.281 132.625C369.26 131.958 369.25 131.354 369.25 130.812C369.25 130.271 369.25 129.823 369.25 129.469C369.25 129.115 369.26 128.906 369.281 128.844C369.344 128.719 369.469 128.552 369.656 128.344C369.844 128.135 370.052 127.938 370.281 127.75C370.51 127.562 370.719 127.417 370.906 127.312C371.115 127.208 371.26 127.198 371.344 127.281ZM382.438 145C382.396 145.125 382.271 145.323 382.062 145.594C381.854 145.865 381.604 146.146 381.312 146.438C381.021 146.729 380.729 146.99 380.438 147.219C380.146 147.448 379.906 147.594 379.719 147.656C379.302 147.781 378.854 147.75 378.375 147.562C377.917 147.396 377.469 147.167 377.031 146.875C376.615 146.583 376.25 146.281 375.938 145.969C375.625 145.677 375.427 145.458 375.344 145.312C375.281 145.167 375.219 144.969 375.156 144.719C375.115 144.469 375.083 144.219 375.062 143.969C375.042 143.719 375.042 143.51 375.062 143.344C375.104 143.156 375.177 143.062 375.281 143.062C375.385 143.062 375.625 143.167 376 143.375C376.396 143.562 376.802 143.76 377.219 143.969C377.656 144.177 378.062 144.344 378.438 144.469C378.812 144.594 379.042 144.573 379.125 144.406C379.208 144.26 379.281 143.854 379.344 143.188C379.427 142.5 379.521 141.667 379.625 140.688C379.583 140.688 379.542 140.698 379.5 140.719C379.479 140.719 379.448 140.719 379.406 140.719C379.219 140.781 378.958 140.812 378.625 140.812C378.292 140.812 377.938 140.792 377.562 140.75C377.208 140.708 376.854 140.635 376.5 140.531C376.167 140.406 375.896 140.25 375.688 140.062C375.604 139.979 375.51 139.854 375.406 139.688C375.323 139.5 375.26 139.26 375.219 138.969C375.156 138.844 375.052 138.49 374.906 137.906C374.76 137.302 374.615 136.625 374.469 135.875C374.323 135.104 374.188 134.333 374.062 133.562C373.958 132.792 373.927 132.177 373.969 131.719C373.99 131.26 374.073 130.792 374.219 130.312C374.365 129.812 374.531 129.344 374.719 128.906C374.927 128.469 375.146 128.094 375.375 127.781C375.604 127.448 375.833 127.219 376.062 127.094C376.562 126.844 377.188 126.792 377.938 126.938C378.688 127.083 379.49 127.365 380.344 127.781C380.365 127.573 380.458 127.344 380.625 127.094C380.792 126.844 380.979 126.625 381.188 126.438C381.417 126.229 381.646 126.083 381.875 126C382.104 125.896 382.281 125.885 382.406 125.969C382.469 126.01 382.521 126.302 382.562 126.844C382.604 127.365 382.635 128.052 382.656 128.906C382.698 129.74 382.719 130.698 382.719 131.781C382.74 132.844 382.74 133.948 382.719 135.094C382.719 136.219 382.708 137.333 382.688 138.438C382.688 139.542 382.667 140.552 382.625 141.469C382.604 142.385 382.573 143.156 382.531 143.781C382.51 144.406 382.479 144.812 382.438 145ZM380.25 130.156C380.125 130.073 379.979 129.99 379.812 129.906C379.667 129.823 379.5 129.74 379.312 129.656C379.125 129.573 378.917 129.5 378.688 129.438C378.583 129.396 378.438 129.438 378.25 129.562C378.083 129.688 377.906 129.865 377.719 130.094C377.552 130.323 377.406 130.604 377.281 130.938C377.156 131.25 377.094 131.583 377.094 131.938C377.094 131.979 377.104 132.177 377.125 132.531C377.146 132.885 377.177 133.312 377.219 133.812C377.26 134.312 377.302 134.854 377.344 135.438C377.385 136.021 377.427 136.562 377.469 137.062C377.531 137.562 377.583 137.99 377.625 138.344C377.667 138.677 377.698 138.854 377.719 138.875C377.802 138.958 377.917 139 378.062 139C378.229 139 378.385 138.979 378.531 138.938C378.698 138.896 378.844 138.844 378.969 138.781C379.094 138.719 379.188 138.667 379.25 138.625C379.521 138.438 379.688 138.073 379.75 137.531C379.792 137.49 379.812 137.375 379.812 137.188C379.875 135.812 379.938 134.573 380 133.469C380.062 132.344 380.146 131.24 380.25 130.156ZM400.531 121.562C400.531 121.604 400.458 121.854 400.312 122.312C400.188 122.75 400.01 123.323 399.781 124.031C399.552 124.719 399.281 125.5 398.969 126.375C398.677 127.25 398.365 128.156 398.031 129.094C397.698 130.01 397.354 130.917 397 131.812C396.667 132.708 396.354 133.51 396.062 134.219C396.021 135.656 395.969 137 395.906 138.25C395.844 139.5 395.781 140.594 395.719 141.531C395.656 142.469 395.594 143.219 395.531 143.781C395.469 144.323 395.417 144.604 395.375 144.625C395.271 144.708 395.104 144.677 394.875 144.531C394.646 144.406 394.406 144.229 394.156 144C393.927 143.771 393.708 143.521 393.5 143.25C393.312 142.979 393.188 142.75 393.125 142.562C393.104 142.479 393.073 142.219 393.031 141.781C392.99 141.323 392.938 140.719 392.875 139.969C392.812 139.198 392.74 138.302 392.656 137.281C392.594 136.26 392.531 135.135 392.469 133.906C392.073 133.031 391.656 132 391.219 130.812C390.844 129.792 390.417 128.552 389.938 127.094C389.479 125.635 389.01 123.958 388.531 122.062C388.531 121.875 388.646 121.688 388.875 121.5C389.104 121.292 389.385 121.115 389.719 120.969C390.052 120.823 390.406 120.708 390.781 120.625C391.156 120.542 391.49 120.531 391.781 120.594C391.865 120.719 392.021 121.198 392.25 122.031C392.333 122.385 392.438 122.833 392.562 123.375C392.708 123.896 392.865 124.552 393.031 125.344C393.198 126.115 393.385 127.021 393.594 128.062C393.823 129.104 394.083 130.312 394.375 131.688C394.688 130.354 394.969 129.177 395.219 128.156C395.469 127.135 395.688 126.25 395.875 125.5C396.083 124.729 396.26 124.083 396.406 123.562C396.573 123.021 396.708 122.573 396.812 122.219C397.062 121.385 397.26 120.896 397.406 120.75C397.552 120.667 397.792 120.635 398.125 120.656C398.479 120.656 398.823 120.708 399.156 120.812C399.51 120.896 399.823 121.01 400.094 121.156C400.365 121.281 400.51 121.417 400.531 121.562ZM406.719 126.906C406.865 127.031 407 127.271 407.125 127.625C407.271 127.979 407.396 128.406 407.5 128.906C407.604 129.406 407.698 129.948 407.781 130.531C407.865 131.115 407.938 131.688 408 132.25C408.062 132.812 408.104 133.344 408.125 133.844C408.167 134.323 408.198 134.719 408.219 135.031C408.24 135.406 408.25 135.802 408.25 136.219C408.271 136.615 408.271 137 408.25 137.375C408.25 137.729 408.229 138.052 408.188 138.344C408.167 138.635 408.125 138.854 408.062 139C407.938 139.312 407.719 139.531 407.406 139.656C407.115 139.76 406.781 139.833 406.406 139.875C406.219 139.896 405.896 139.906 405.438 139.906C405 139.885 404.521 139.865 404 139.844C403.5 139.802 403.021 139.76 402.562 139.719C402.104 139.677 401.76 139.635 401.531 139.594C401.073 139.49 400.74 139.354 400.531 139.188C400.344 139.021 400.156 138.781 399.969 138.469C399.906 138.344 399.854 138.031 399.812 137.531C399.771 137.01 399.74 136.396 399.719 135.688C399.719 134.958 399.729 134.177 399.75 133.344C399.771 132.51 399.802 131.719 399.844 130.969C399.906 130.219 399.969 129.562 400.031 129C400.115 128.438 400.219 128.062 400.344 127.875C400.552 127.583 400.906 127.312 401.406 127.062C401.927 126.812 402.396 126.615 402.812 126.469C403.021 126.406 403.292 126.365 403.625 126.344C403.979 126.302 404.344 126.302 404.719 126.344C405.115 126.365 405.49 126.427 405.844 126.531C406.198 126.615 406.49 126.74 406.719 126.906ZM404.969 136.594C405.01 136.51 405.052 136.26 405.094 135.844C405.156 135.406 405.198 134.885 405.219 134.281C405.26 133.677 405.281 133.031 405.281 132.344C405.302 131.656 405.312 131.021 405.312 130.438C405.312 129.854 405.292 129.365 405.25 128.969C405.208 128.552 405.156 128.312 405.094 128.25C404.99 128.167 404.833 128.135 404.625 128.156C404.438 128.156 404.24 128.188 404.031 128.25C403.823 128.292 403.635 128.354 403.469 128.438C403.302 128.5 403.188 128.562 403.125 128.625C402.854 128.854 402.708 129.229 402.688 129.75C402.688 129.896 402.667 130.312 402.625 131C402.604 131.667 402.594 132.396 402.594 133.188C402.594 133.958 402.604 134.677 402.625 135.344C402.667 136.01 402.74 136.417 402.844 136.562C402.948 136.708 403.094 136.823 403.281 136.906C403.49 136.969 403.698 137 403.906 137C404.135 137 404.344 136.969 404.531 136.906C404.74 136.823 404.885 136.719 404.969 136.594ZM416.875 127.281C416.917 127.344 416.979 127.635 417.062 128.156C417.146 128.677 417.229 129.323 417.312 130.094C417.417 130.865 417.51 131.698 417.594 132.594C417.698 133.49 417.792 134.344 417.875 135.156C417.979 135.969 418.062 136.698 418.125 137.344C418.188 137.99 418.24 138.427 418.281 138.656C418.344 139.031 418.417 139.448 418.5 139.906C418.583 140.344 418.656 140.771 418.719 141.188C418.781 141.583 418.823 141.927 418.844 142.219C418.885 142.51 418.875 142.688 418.812 142.75C418.771 142.812 418.604 142.833 418.312 142.812C418.021 142.771 417.698 142.708 417.344 142.625C417.01 142.521 416.688 142.406 416.375 142.281C416.083 142.135 415.896 142 415.812 141.875C415.729 141.771 415.646 141.615 415.562 141.406C415.5 141.198 415.417 140.833 415.312 140.312C415.083 140.625 414.833 140.958 414.562 141.312C414.312 141.646 414.062 141.958 413.812 142.25C413.562 142.521 413.333 142.74 413.125 142.906C412.917 143.073 412.76 143.156 412.656 143.156C412.49 143.156 412.24 142.99 411.906 142.656C411.573 142.302 411.24 141.906 410.906 141.469C410.573 141.031 410.271 140.615 410 140.219C409.729 139.823 409.583 139.562 409.562 139.438C409.521 139.312 409.5 138.969 409.5 138.406C409.521 137.844 409.542 137.219 409.562 136.531C409.604 135.823 409.646 135.125 409.688 134.438C409.729 133.729 409.771 133.167 409.812 132.75C409.854 132.333 409.896 131.875 409.938 131.375C410 130.854 410.062 130.375 410.125 129.938C410.188 129.479 410.24 129.083 410.281 128.75C410.344 128.417 410.396 128.219 410.438 128.156C410.479 128.094 410.594 128.062 410.781 128.062C410.99 128.042 411.198 128.052 411.406 128.094C411.635 128.115 411.844 128.167 412.031 128.25C412.219 128.312 412.344 128.396 412.406 128.5C412.448 128.583 412.469 128.854 412.469 129.312C412.49 129.75 412.5 130.292 412.5 130.938C412.5 131.562 412.5 132.25 412.5 133C412.5 133.729 412.49 134.417 412.469 135.062C412.469 135.688 412.458 136.229 412.438 136.688C412.438 137.125 412.438 137.385 412.438 137.469C412.438 137.635 412.531 137.958 412.719 138.438C412.927 138.917 413.135 139.375 413.344 139.812L414.969 137.875C414.948 137.5 414.927 137.021 414.906 136.438C414.906 135.854 414.896 135.24 414.875 134.594C414.854 133.948 414.833 133.292 414.812 132.625C414.792 131.958 414.781 131.354 414.781 130.812C414.781 130.271 414.781 129.823 414.781 129.469C414.781 129.115 414.792 128.906 414.812 128.844C414.875 128.719 415 128.552 415.188 128.344C415.375 128.135 415.583 127.938 415.812 127.75C416.042 127.562 416.25 127.417 416.438 127.312C416.646 127.208 416.792 127.198 416.875 127.281ZM426.875 126.969C427.042 127.073 427.198 127.281 427.344 127.594C427.51 127.885 427.656 128.229 427.781 128.625C427.927 129 428.042 129.406 428.125 129.844C428.229 130.281 428.312 130.688 428.375 131.062C428.458 131.438 428.51 131.76 428.531 132.031C428.552 132.281 428.552 132.438 428.531 132.5C428.49 132.583 428.365 132.667 428.156 132.75C427.969 132.833 427.688 132.927 427.312 133.031C426.938 133.135 426.417 133.25 425.75 133.375C425.708 132.229 425.625 131.365 425.5 130.781C425.375 130.177 425.24 129.75 425.094 129.5C424.927 129.208 424.75 129.062 424.562 129.062C424.375 129.146 424.208 129.25 424.062 129.375C423.917 129.479 423.792 129.594 423.688 129.719C423.562 129.865 423.448 130.021 423.344 130.188C423.302 130.25 423.26 130.396 423.219 130.625C423.177 130.854 423.135 131.198 423.094 131.656C423.094 131.802 423.083 132.104 423.062 132.562C423.062 133.021 423.052 133.552 423.031 134.156C423.031 134.76 423.021 135.396 423 136.062C423 136.729 422.99 137.354 422.969 137.938C422.969 138.5 422.958 138.979 422.938 139.375C422.938 139.771 422.927 140 422.906 140.062C422.865 140.167 422.76 140.312 422.594 140.5C422.427 140.688 422.24 140.865 422.031 141.031C421.823 141.177 421.625 141.302 421.438 141.406C421.25 141.49 421.125 141.479 421.062 141.375C421 141.312 420.938 141.042 420.875 140.562C420.812 140.083 420.74 139.5 420.656 138.812C420.594 138.104 420.521 137.333 420.438 136.5C420.354 135.667 420.281 134.865 420.219 134.094C420.156 133.323 420.104 132.635 420.062 132.031C420.021 131.406 419.99 130.958 419.969 130.688C419.948 130.292 419.927 129.854 419.906 129.375C419.885 128.896 419.865 128.448 419.844 128.031C419.844 127.594 419.844 127.219 419.844 126.906C419.865 126.573 419.906 126.375 419.969 126.312C420.01 126.25 420.146 126.24 420.375 126.281C420.625 126.302 420.885 126.365 421.156 126.469C421.448 126.552 421.719 126.667 421.969 126.812C422.219 126.958 422.385 127.094 422.469 127.219C422.531 127.323 422.594 127.479 422.656 127.688C423.052 127.479 423.427 127.292 423.781 127.125C424.156 126.938 424.51 126.802 424.844 126.719C425.198 126.635 425.542 126.615 425.875 126.656C426.208 126.677 426.542 126.781 426.875 126.969ZM436 144.969C435.958 144.865 435.938 144.49 435.938 143.844C435.938 143.198 435.938 142.385 435.938 141.406C435.958 140.427 435.979 139.333 436 138.125C436.042 136.896 436.073 135.656 436.094 134.406C436.135 133.135 436.177 131.906 436.219 130.719C436.26 129.51 436.292 128.438 436.312 127.5C436.354 126.562 436.385 125.802 436.406 125.219C436.427 124.615 436.448 124.292 436.469 124.25C436.49 124.167 436.583 123.958 436.75 123.625C436.917 123.292 437.104 122.948 437.312 122.594C437.542 122.219 437.771 121.896 438 121.625C438.229 121.333 438.427 121.198 438.594 121.219C438.656 121.24 438.708 121.656 438.75 122.469C438.812 123.26 438.865 124.281 438.906 125.531C438.969 126.781 439.01 128.167 439.031 129.688C439.073 131.188 439.104 132.656 439.125 134.094C439.167 135.51 439.198 136.802 439.219 137.969C439.24 139.115 439.26 139.958 439.281 140.5C439.948 140.562 440.615 140.615 441.281 140.656C441.969 140.698 442.583 140.75 443.125 140.812C443.667 140.854 444.104 140.896 444.438 140.938C444.792 140.979 444.979 141.01 445 141.031C445.062 141.115 445.146 141.312 445.25 141.625C445.375 141.917 445.49 142.24 445.594 142.594C445.698 142.927 445.771 143.24 445.812 143.531C445.875 143.823 445.865 144 445.781 144.062C443.385 144.5 441.531 144.792 440.219 144.938C438.906 145.083 437.938 145.156 437.312 145.156C436.583 145.156 436.146 145.094 436 144.969ZM448.156 134.969C448.49 134.844 448.865 134.708 449.281 134.562C449.719 134.396 450.135 134.25 450.531 134.125C450.927 133.979 451.281 133.854 451.594 133.75C451.906 133.646 452.135 133.562 452.281 133.5C452.26 133.271 452.229 133.01 452.188 132.719C452.167 132.406 452.135 132.115 452.094 131.844C452.052 131.552 452 131.302 451.938 131.094C451.875 130.885 451.812 130.76 451.75 130.719C451.583 130.656 451.302 130.604 450.906 130.562C450.531 130.5 450.135 130.51 449.719 130.594C449.323 130.677 448.958 130.833 448.625 131.062C448.292 131.292 448.104 131.656 448.062 132.156C448.021 132.49 448.01 132.906 448.031 133.406C448.052 133.906 448.094 134.427 448.156 134.969ZM454.938 135.469C454.917 135.51 454.667 135.594 454.188 135.719C453.708 135.844 453.135 135.979 452.469 136.125C451.802 136.25 451.094 136.385 450.344 136.531C449.594 136.656 448.948 136.76 448.406 136.844C448.51 137.677 448.635 138.427 448.781 139.094C448.927 139.74 449.052 140.146 449.156 140.312C449.26 140.458 449.396 140.594 449.562 140.719C449.708 140.823 449.885 140.927 450.094 141.031C450.323 141.115 450.594 141.177 450.906 141.219C451.135 141.281 451.354 141.198 451.562 140.969C451.729 140.76 451.875 140.396 452 139.875C452.146 139.354 452.219 138.531 452.219 137.406C452.865 137.302 453.365 137.24 453.719 137.219C454.094 137.198 454.365 137.198 454.531 137.219C454.74 137.24 454.865 137.271 454.906 137.312C454.927 137.375 454.927 137.531 454.906 137.781C454.885 138.031 454.833 138.344 454.75 138.719C454.688 139.073 454.604 139.469 454.5 139.906C454.417 140.323 454.312 140.729 454.188 141.125C454.062 141.5 453.927 141.844 453.781 142.156C453.635 142.448 453.479 142.656 453.312 142.781C452.812 143.156 452.188 143.344 451.438 143.344C450.688 143.323 449.948 143.219 449.219 143.031C448.49 142.823 447.833 142.583 447.25 142.312C446.667 142.021 446.302 141.781 446.156 141.594C446.052 141.469 445.958 141.156 445.875 140.656C445.792 140.135 445.719 139.51 445.656 138.781C445.615 138.052 445.583 137.25 445.562 136.375C445.542 135.5 445.552 134.646 445.594 133.812C445.656 132.979 445.74 132.208 445.844 131.5C445.969 130.792 446.135 130.219 446.344 129.781C446.656 129.156 447.167 128.646 447.875 128.25C448.583 127.854 449.333 127.583 450.125 127.438C450.917 127.292 451.667 127.271 452.375 127.375C453.104 127.479 453.646 127.708 454 128.062C454.208 128.271 454.396 128.688 454.562 129.312C454.729 129.917 454.833 130.656 454.875 131.531C454.875 131.615 454.885 131.854 454.906 132.25C454.927 132.646 454.938 133.073 454.938 133.531C454.958 133.969 454.969 134.385 454.969 134.781C454.969 135.177 454.958 135.406 454.938 135.469ZM465.125 127.562C465.25 127.708 465.365 127.865 465.469 128.031C465.573 128.177 465.667 128.385 465.75 128.656C465.833 128.906 465.896 129.24 465.938 129.656C466 130.073 466.031 130.615 466.031 131.281C466.031 132.344 466 133.417 465.938 134.5C465.896 135.562 465.854 136.5 465.812 137.312C465.792 138.042 465.771 138.719 465.75 139.344C465.729 139.969 465.708 140.521 465.688 141C465.667 141.458 465.635 141.823 465.594 142.094C465.573 142.365 465.552 142.51 465.531 142.531C465.448 142.594 465.312 142.573 465.125 142.469C464.958 142.344 464.771 142.188 464.562 142C464.375 141.812 464.198 141.615 464.031 141.406C463.865 141.198 463.76 141.031 463.719 140.906C463.719 140.802 463.688 140.5 463.625 140C463.125 140.292 462.573 140.5 461.969 140.625C461.365 140.729 460.76 140.771 460.156 140.75C459.573 140.708 459.031 140.594 458.531 140.406C458.031 140.219 457.656 139.969 457.406 139.656C457.302 139.531 457.208 139.344 457.125 139.094C457.062 138.844 457 138.562 456.938 138.25C456.896 137.917 456.854 137.573 456.812 137.219C456.771 136.844 456.74 136.5 456.719 136.188C456.677 135.375 456.781 134.677 457.031 134.094C457.281 133.49 457.74 133.042 458.406 132.75C458.698 132.625 459.083 132.562 459.562 132.562C460.062 132.542 460.552 132.562 461.031 132.625C461.531 132.667 461.979 132.729 462.375 132.812C462.771 132.875 463.021 132.927 463.125 132.969C463.042 131.906 462.979 130.99 462.938 130.219C462.896 129.427 462.812 128.917 462.688 128.688C462.583 128.542 462.458 128.396 462.312 128.25C462.188 128.146 462.021 128.031 461.812 127.906C461.604 127.781 461.354 127.688 461.062 127.625C460.833 127.583 460.625 127.677 460.438 127.906C460.271 128.115 460.115 128.49 459.969 129.031C459.844 129.552 459.771 130.354 459.75 131.438C459.021 131.458 458.458 131.458 458.062 131.438C457.688 131.396 457.406 131.354 457.219 131.312C456.99 131.271 456.854 131.219 456.812 131.156C456.771 131.073 456.792 130.771 456.875 130.25C456.958 129.708 457.073 129.125 457.219 128.5C457.385 127.875 457.573 127.281 457.781 126.719C458.01 126.156 458.25 125.802 458.5 125.656C459 125.365 459.594 125.26 460.281 125.344C460.99 125.427 461.677 125.604 462.344 125.875C463.01 126.146 463.604 126.448 464.125 126.781C464.646 127.115 464.979 127.375 465.125 127.562ZM463.188 136.688C463.188 136.583 463.198 136.448 463.219 136.281C463.24 136.094 463.25 135.906 463.25 135.719C463.25 135.531 463.24 135.354 463.219 135.188C463.219 135.021 463.198 134.896 463.156 134.812C463.094 134.688 462.906 134.583 462.594 134.5C462.302 134.417 461.969 134.365 461.594 134.344C461.219 134.302 460.865 134.292 460.531 134.312C460.198 134.312 459.969 134.354 459.844 134.438C459.677 134.542 459.552 134.688 459.469 134.875C459.406 135.062 459.365 135.354 459.344 135.75C459.344 135.938 459.354 136.135 459.375 136.344C459.396 136.552 459.417 136.76 459.438 136.969C459.479 137.156 459.521 137.323 459.562 137.469C459.625 137.615 459.688 137.708 459.75 137.75C459.896 137.854 460.146 137.948 460.5 138.031C460.875 138.094 461.25 138.115 461.625 138.094C462 138.052 462.344 137.927 462.656 137.719C462.969 137.51 463.146 137.167 463.188 136.688ZM474.812 126.969C474.979 127.073 475.135 127.281 475.281 127.594C475.448 127.885 475.594 128.229 475.719 128.625C475.865 129 475.979 129.406 476.062 129.844C476.167 130.281 476.25 130.688 476.312 131.062C476.396 131.438 476.448 131.76 476.469 132.031C476.49 132.281 476.49 132.438 476.469 132.5C476.427 132.583 476.302 132.667 476.094 132.75C475.906 132.833 475.625 132.927 475.25 133.031C474.875 133.135 474.354 133.25 473.688 133.375C473.646 132.229 473.562 131.365 473.438 130.781C473.312 130.177 473.177 129.75 473.031 129.5C472.865 129.208 472.688 129.062 472.5 129.062C472.312 129.146 472.146 129.25 472 129.375C471.854 129.479 471.729 129.594 471.625 129.719C471.5 129.865 471.385 130.021 471.281 130.188C471.24 130.25 471.198 130.396 471.156 130.625C471.115 130.854 471.073 131.198 471.031 131.656C471.031 131.802 471.021 132.104 471 132.562C471 133.021 470.99 133.552 470.969 134.156C470.969 134.76 470.958 135.396 470.938 136.062C470.938 136.729 470.927 137.354 470.906 137.938C470.906 138.5 470.896 138.979 470.875 139.375C470.875 139.771 470.865 140 470.844 140.062C470.802 140.167 470.698 140.312 470.531 140.5C470.365 140.688 470.177 140.865 469.969 141.031C469.76 141.177 469.562 141.302 469.375 141.406C469.188 141.49 469.062 141.479 469 141.375C468.938 141.312 468.875 141.042 468.812 140.562C468.75 140.083 468.677 139.5 468.594 138.812C468.531 138.104 468.458 137.333 468.375 136.5C468.292 135.667 468.219 134.865 468.156 134.094C468.094 133.323 468.042 132.635 468 132.031C467.958 131.406 467.927 130.958 467.906 130.688C467.885 130.292 467.865 129.854 467.844 129.375C467.823 128.896 467.802 128.448 467.781 128.031C467.781 127.594 467.781 127.219 467.781 126.906C467.802 126.573 467.844 126.375 467.906 126.312C467.948 126.25 468.083 126.24 468.312 126.281C468.562 126.302 468.823 126.365 469.094 126.469C469.385 126.552 469.656 126.667 469.906 126.812C470.156 126.958 470.323 127.094 470.406 127.219C470.469 127.323 470.531 127.479 470.594 127.688C470.99 127.479 471.365 127.292 471.719 127.125C472.094 126.938 472.448 126.802 472.781 126.719C473.135 126.635 473.479 126.615 473.812 126.656C474.146 126.677 474.479 126.781 474.812 126.969ZM486.438 130.906C486.438 131.24 486.396 131.719 486.312 132.344C486.25 132.969 486.156 133.656 486.031 134.406C485.906 135.135 485.771 135.896 485.625 136.688C485.5 137.458 485.365 138.167 485.219 138.812C485.094 139.458 484.979 140 484.875 140.438C484.792 140.875 484.74 141.115 484.719 141.156C484.677 141.219 484.562 141.26 484.375 141.281C484.208 141.281 484.01 141.26 483.781 141.219C483.573 141.177 483.375 141.115 483.188 141.031C483.021 140.948 482.917 140.844 482.875 140.719C482.854 140.635 482.844 140.344 482.844 139.844C482.865 139.344 482.885 138.75 482.906 138.062C482.948 137.354 482.99 136.604 483.031 135.812C483.073 135 483.115 134.25 483.156 133.562C483.219 132.854 483.26 132.25 483.281 131.75C483.323 131.25 483.344 130.948 483.344 130.844C483.344 130.469 483.302 130.115 483.219 129.781C483.156 129.427 483.073 129.125 482.969 128.875C482.865 128.625 482.74 128.438 482.594 128.312C482.469 128.167 482.354 128.115 482.25 128.156C481.979 128.198 481.75 128.271 481.562 128.375C481.375 128.458 481.219 128.552 481.094 128.656C480.948 128.781 480.833 128.927 480.75 129.094C480.729 129.135 480.688 129.26 480.625 129.469C480.583 129.677 480.562 129.917 480.562 130.188C480.562 130.271 480.562 130.573 480.562 131.094C480.562 131.594 480.552 132.198 480.531 132.906C480.531 133.615 480.521 134.385 480.5 135.219C480.5 136.031 480.49 136.792 480.469 137.5C480.469 138.188 480.458 138.781 480.438 139.281C480.417 139.781 480.396 140.062 480.375 140.125C480.333 140.25 480.229 140.427 480.062 140.656C479.896 140.865 479.708 141.062 479.5 141.25C479.292 141.438 479.094 141.583 478.906 141.688C478.719 141.771 478.594 141.75 478.531 141.625C478.469 141.562 478.406 141.26 478.344 140.719C478.281 140.156 478.208 139.479 478.125 138.688C478.062 137.875 477.99 137 477.906 136.062C477.823 135.104 477.75 134.188 477.688 133.312C477.625 132.438 477.573 131.646 477.531 130.938C477.49 130.229 477.458 129.719 477.438 129.406C477.417 128.969 477.396 128.479 477.375 127.938C477.354 127.375 477.333 126.854 477.312 126.375C477.312 125.875 477.312 125.448 477.312 125.094C477.333 124.719 477.375 124.49 477.438 124.406C477.479 124.323 477.615 124.302 477.844 124.344C478.094 124.385 478.354 124.469 478.625 124.594C478.917 124.698 479.188 124.833 479.438 125C479.688 125.146 479.854 125.292 479.938 125.438C479.979 125.562 480.031 125.708 480.094 125.875C480.156 126.021 480.208 126.271 480.25 126.625C480.604 126.417 480.99 126.229 481.406 126.062C481.823 125.875 482.229 125.74 482.625 125.656C483.042 125.552 483.438 125.521 483.812 125.562C484.188 125.583 484.521 125.688 484.812 125.875C485 126.021 485.188 126.271 485.375 126.625C485.583 126.979 485.76 127.396 485.906 127.875C486.073 128.354 486.198 128.865 486.281 129.406C486.385 129.927 486.438 130.427 486.438 130.906ZM491.5 130.562C491.542 130.667 491.562 131 491.562 131.562C491.583 132.104 491.583 132.771 491.562 133.562C491.562 134.333 491.542 135.167 491.5 136.062C491.458 136.938 491.406 137.771 491.344 138.562C491.302 139.333 491.25 140 491.188 140.562C491.125 141.104 491.062 141.427 491 141.531C490.812 141.823 490.531 142.01 490.156 142.094C489.781 142.156 489.51 142.167 489.344 142.125C489.26 142.125 489.167 141.885 489.062 141.406C488.979 140.927 488.896 140.323 488.812 139.594C488.729 138.865 488.656 138.073 488.594 137.219C488.531 136.365 488.479 135.552 488.438 134.781C488.396 133.99 488.375 133.302 488.375 132.719C488.375 132.135 488.396 131.76 488.438 131.594C488.5 131.323 488.677 131.083 488.969 130.875C489.281 130.667 489.604 130.51 489.938 130.406C490.292 130.302 490.615 130.26 490.906 130.281C491.219 130.281 491.417 130.375 491.5 130.562ZM491.656 125.5C491.74 125.667 491.771 125.896 491.75 126.188C491.75 126.479 491.719 126.781 491.656 127.094C491.594 127.406 491.51 127.708 491.406 128C491.302 128.292 491.198 128.521 491.094 128.688C490.885 128.979 490.573 129.167 490.156 129.25C489.76 129.312 489.469 129.323 489.281 129.281C489.135 129.26 488.99 129.167 488.844 129C488.698 128.812 488.573 128.594 488.469 128.344C488.365 128.073 488.292 127.781 488.25 127.469C488.208 127.156 488.219 126.865 488.281 126.594C488.344 126.323 488.542 126.083 488.875 125.875C489.208 125.646 489.562 125.479 489.938 125.375C490.312 125.25 490.667 125.198 491 125.219C491.333 125.219 491.552 125.312 491.656 125.5ZM502.812 130.906C502.812 131.24 502.771 131.719 502.688 132.344C502.625 132.969 502.531 133.656 502.406 134.406C502.281 135.135 502.146 135.896 502 136.688C501.875 137.458 501.74 138.167 501.594 138.812C501.469 139.458 501.354 140 501.25 140.438C501.167 140.875 501.115 141.115 501.094 141.156C501.052 141.219 500.938 141.26 500.75 141.281C500.583 141.281 500.385 141.26 500.156 141.219C499.948 141.177 499.75 141.115 499.562 141.031C499.396 140.948 499.292 140.844 499.25 140.719C499.229 140.635 499.219 140.344 499.219 139.844C499.24 139.344 499.26 138.75 499.281 138.062C499.323 137.354 499.365 136.604 499.406 135.812C499.448 135 499.49 134.25 499.531 133.562C499.594 132.854 499.635 132.25 499.656 131.75C499.698 131.25 499.719 130.948 499.719 130.844C499.719 130.469 499.677 130.115 499.594 129.781C499.531 129.427 499.448 129.125 499.344 128.875C499.24 128.625 499.115 128.438 498.969 128.312C498.844 128.167 498.729 128.115 498.625 128.156C498.354 128.198 498.125 128.271 497.938 128.375C497.75 128.458 497.594 128.552 497.469 128.656C497.323 128.781 497.208 128.927 497.125 129.094C497.104 129.135 497.062 129.26 497 129.469C496.958 129.677 496.938 129.917 496.938 130.188C496.938 130.271 496.938 130.573 496.938 131.094C496.938 131.594 496.927 132.198 496.906 132.906C496.906 133.615 496.896 134.385 496.875 135.219C496.875 136.031 496.865 136.792 496.844 137.5C496.844 138.188 496.833 138.781 496.812 139.281C496.792 139.781 496.771 140.062 496.75 140.125C496.708 140.25 496.604 140.427 496.438 140.656C496.271 140.865 496.083 141.062 495.875 141.25C495.667 141.438 495.469 141.583 495.281 141.688C495.094 141.771 494.969 141.75 494.906 141.625C494.844 141.562 494.781 141.26 494.719 140.719C494.656 140.156 494.583 139.479 494.5 138.688C494.438 137.875 494.365 137 494.281 136.062C494.198 135.104 494.125 134.188 494.062 133.312C494 132.438 493.948 131.646 493.906 130.938C493.865 130.229 493.833 129.719 493.812 129.406C493.792 128.969 493.771 128.479 493.75 127.938C493.729 127.375 493.708 126.854 493.688 126.375C493.688 125.875 493.688 125.448 493.688 125.094C493.708 124.719 493.75 124.49 493.812 124.406C493.854 124.323 493.99 124.302 494.219 124.344C494.469 124.385 494.729 124.469 495 124.594C495.292 124.698 495.562 124.833 495.812 125C496.062 125.146 496.229 125.292 496.312 125.438C496.354 125.562 496.406 125.708 496.469 125.875C496.531 126.021 496.583 126.271 496.625 126.625C496.979 126.417 497.365 126.229 497.781 126.062C498.198 125.875 498.604 125.74 499 125.656C499.417 125.552 499.812 125.521 500.188 125.562C500.562 125.583 500.896 125.688 501.188 125.875C501.375 126.021 501.562 126.271 501.75 126.625C501.958 126.979 502.135 127.396 502.281 127.875C502.448 128.354 502.573 128.865 502.656 129.406C502.76 129.927 502.812 130.427 502.812 130.906ZM512.562 145C512.521 145.125 512.396 145.323 512.188 145.594C511.979 145.865 511.729 146.146 511.438 146.438C511.146 146.729 510.854 146.99 510.562 147.219C510.271 147.448 510.031 147.594 509.844 147.656C509.427 147.781 508.979 147.75 508.5 147.562C508.042 147.396 507.594 147.167 507.156 146.875C506.74 146.583 506.375 146.281 506.062 145.969C505.75 145.677 505.552 145.458 505.469 145.312C505.406 145.167 505.344 144.969 505.281 144.719C505.24 144.469 505.208 144.219 505.188 143.969C505.167 143.719 505.167 143.51 505.188 143.344C505.229 143.156 505.302 143.062 505.406 143.062C505.51 143.062 505.75 143.167 506.125 143.375C506.521 143.562 506.927 143.76 507.344 143.969C507.781 144.177 508.188 144.344 508.562 144.469C508.938 144.594 509.167 144.573 509.25 144.406C509.333 144.26 509.406 143.854 509.469 143.188C509.552 142.5 509.646 141.667 509.75 140.688C509.708 140.688 509.667 140.698 509.625 140.719C509.604 140.719 509.573 140.719 509.531 140.719C509.344 140.781 509.083 140.812 508.75 140.812C508.417 140.812 508.062 140.792 507.688 140.75C507.333 140.708 506.979 140.635 506.625 140.531C506.292 140.406 506.021 140.25 505.812 140.062C505.729 139.979 505.635 139.854 505.531 139.688C505.448 139.5 505.385 139.26 505.344 138.969C505.281 138.844 505.177 138.49 505.031 137.906C504.885 137.302 504.74 136.625 504.594 135.875C504.448 135.104 504.312 134.333 504.188 133.562C504.083 132.792 504.052 132.177 504.094 131.719C504.115 131.26 504.198 130.792 504.344 130.312C504.49 129.812 504.656 129.344 504.844 128.906C505.052 128.469 505.271 128.094 505.5 127.781C505.729 127.448 505.958 127.219 506.188 127.094C506.688 126.844 507.312 126.792 508.062 126.938C508.812 127.083 509.615 127.365 510.469 127.781C510.49 127.573 510.583 127.344 510.75 127.094C510.917 126.844 511.104 126.625 511.312 126.438C511.542 126.229 511.771 126.083 512 126C512.229 125.896 512.406 125.885 512.531 125.969C512.594 126.01 512.646 126.302 512.688 126.844C512.729 127.365 512.76 128.052 512.781 128.906C512.823 129.74 512.844 130.698 512.844 131.781C512.865 132.844 512.865 133.948 512.844 135.094C512.844 136.219 512.833 137.333 512.812 138.438C512.812 139.542 512.792 140.552 512.75 141.469C512.729 142.385 512.698 143.156 512.656 143.781C512.635 144.406 512.604 144.812 512.562 145ZM510.375 130.156C510.25 130.073 510.104 129.99 509.938 129.906C509.792 129.823 509.625 129.74 509.438 129.656C509.25 129.573 509.042 129.5 508.812 129.438C508.708 129.396 508.562 129.438 508.375 129.562C508.208 129.688 508.031 129.865 507.844 130.094C507.677 130.323 507.531 130.604 507.406 130.938C507.281 131.25 507.219 131.583 507.219 131.938C507.219 131.979 507.229 132.177 507.25 132.531C507.271 132.885 507.302 133.312 507.344 133.812C507.385 134.312 507.427 134.854 507.469 135.438C507.51 136.021 507.552 136.562 507.594 137.062C507.656 137.562 507.708 137.99 507.75 138.344C507.792 138.677 507.823 138.854 507.844 138.875C507.927 138.958 508.042 139 508.188 139C508.354 139 508.51 138.979 508.656 138.938C508.823 138.896 508.969 138.844 509.094 138.781C509.219 138.719 509.312 138.667 509.375 138.625C509.646 138.438 509.812 138.073 509.875 137.531C509.917 137.49 509.938 137.375 509.938 137.188C510 135.812 510.062 134.573 510.125 133.469C510.188 132.344 510.271 131.24 510.375 130.156ZM517.125 137.938C517.188 138.104 517.219 138.323 517.219 138.594C517.219 138.844 517.188 139.115 517.125 139.406C517.062 139.677 516.979 139.948 516.875 140.219C516.792 140.469 516.698 140.677 516.594 140.844C516.51 140.969 516.396 141.073 516.25 141.156C516.104 141.24 515.948 141.302 515.781 141.344C515.615 141.365 515.458 141.375 515.312 141.375C515.167 141.375 515.052 141.375 514.969 141.375C514.844 141.354 514.708 141.26 514.562 141.094C514.438 140.927 514.323 140.729 514.219 140.5C514.135 140.25 514.073 139.99 514.031 139.719C513.99 139.427 514 139.156 514.062 138.906C514.125 138.656 514.302 138.438 514.594 138.25C514.885 138.062 515.198 137.917 515.531 137.812C515.885 137.708 516.219 137.667 516.531 137.688C516.844 137.688 517.042 137.771 517.125 137.938Z" fill="#FBBF24"/>
</g>
<defs>
<linearGradient id="paint0_linear_17_674" x1="493.479" y1="10.2548" x2="6522.94" y2="1855.85" gradientUnits="userSpaceOnUse">
<stop stop-color="#FBBF24"/>
<stop offset="1" stop-color="#F59E0B"/>
</linearGradient>
<clipPath id="clip0_17_674">
<rect width="568" height="166" fill="white"/>
</clipPath>
</defs>
</svg>
